<svg width="85" height="85" viewBox="0 0 85 85" fill="none" xmlns="http://www.w3.org/2000/svg">
<path d="M22.5807 19.2189C20.7107 19.2189 19.1826 20.747 19.1826 22.617V45.1952C19.1826 47.0652 20.7107 48.5933 22.5807 48.5933H62.4245C64.2945 48.5933 65.8226 47.0652 65.8226 45.1952V22.617C65.8226 20.747 64.2945 19.2189 62.4245 19.2189H22.5807ZM22.5807 20.7027H62.4245C63.4976 20.7027 64.3389 21.5439 64.3389 22.617V45.1952C64.3389 46.2682 63.4976 47.1095 62.4245 47.1095H22.5807C21.5077 47.1095 20.6664 46.2682 20.6664 45.1952V22.617C20.6664 21.5439 21.5077 20.7027 22.5807 20.7027Z" fill="white"/>
<path d="M20.9595 47.1873L20.7598 47.4052C20.7598 47.4052 17.434 51.0649 14.4305 54.7359C12.9287 56.5714 11.5093 58.4047 10.6069 59.8227C10.1557 60.5317 9.82923 61.1152 9.68086 61.6592C9.60667 61.9313 9.54515 62.2224 9.7042 62.5723C9.86326 62.9222 10.3095 63.1248 10.6277 63.1248H74.3777C74.5714 63.1248 74.8962 62.9896 75.0339 62.7565C75.1717 62.5234 75.1531 62.3384 75.1351 62.2066C75.0992 61.943 75.0107 61.7659 74.8965 61.5373C74.6679 61.0803 74.2998 60.5007 73.8251 59.8045C72.8758 58.4122 71.5022 56.5826 70.0872 54.7514C67.2572 51.0891 64.2663 47.4312 64.2663 47.4312L64.0665 47.1873H20.9595ZM21.5536 48.5155H63.4336C63.6234 48.7476 66.3163 52.0429 69.0366 55.5634C70.4439 57.3845 71.8095 59.2047 72.7279 60.5516C73.0898 61.0824 73.3091 61.4575 73.5009 61.7967H11.0712C11.1801 61.5076 11.3671 61.1024 11.7275 60.536C12.5683 59.2147 13.9712 57.3932 15.4577 55.5763C18.3415 52.0517 21.3638 48.7245 21.5536 48.5155Z" fill="white"/>
<path d="M31.8777 59.1405V60.4686H53.1277V59.1405H31.8777Z" fill="white"/>
<path d="M22.5808 51.1717V52.4998H25.2371V51.1717H22.5808Z" fill="white"/>
<path d="M27.8933 51.1717V52.4998H30.5496V51.1717H27.8933Z" fill="white"/>
<path d="M33.2058 51.1717V52.4998H35.8621V51.1717H33.2058Z" fill="white"/>
<path d="M38.5183 51.1717V52.4998H41.1746V51.1717H38.5183Z" fill="white"/>
<path d="M43.8308 51.1717V52.4998H46.4871V51.1717H43.8308Z" fill="white"/>
<path d="M49.1433 51.1717V52.4998H51.7996V51.1717H49.1433Z" fill="white"/>
<path d="M54.4558 51.1717V52.4998H57.1121V51.1717H54.4558Z" fill="white"/>
<path d="M59.7683 51.1717V52.4998H62.4246V51.1717H59.7683Z" fill="white"/>
<path d="M22.5808 53.828V55.1561H25.2371V53.828H22.5808Z" fill="white"/>
<path d="M27.8933 53.828V55.1561H30.5496V53.828H27.8933Z" fill="white"/>
<path d="M33.2058 53.828V55.1561H35.8621V53.828H33.2058Z" fill="white"/>
<path d="M38.5183 53.828V55.1561H41.1746V53.828H38.5183Z" fill="white"/>
<path d="M43.8308 53.828V55.1561H46.4871V53.828H43.8308Z" fill="white"/>
<path d="M49.1433 53.828V55.1561H51.7996V53.828H49.1433Z" fill="white"/>
<path d="M54.4558 53.828V55.1561H57.1121V53.828H54.4558Z" fill="white"/>
<path d="M59.7683 53.828V55.1561H62.4246V53.828H59.7683Z" fill="white"/>
<path d="M22.5808 56.4842V57.8123H25.2371V56.4842H22.5808Z" fill="white"/>
<path d="M27.8933 56.4842V57.8123H30.5496V56.4842H27.8933Z" fill="white"/>
<path d="M33.2058 56.4842V57.8123H35.8621V56.4842H33.2058Z" fill="white"/>
<path d="M38.5183 56.4842V57.8123H41.1746V56.4842H38.5183Z" fill="white"/>
<path d="M43.8308 56.4842V57.8123H46.4871V56.4842H43.8308Z" fill="white"/>
<path d="M49.1433 56.4842V57.8123H51.7996V56.4842H49.1433Z" fill="white"/>
<path d="M54.4558 56.4842V57.8123H57.1121V56.4842H54.4558Z" fill="white"/>
<path d="M59.7683 56.4842V57.8123H62.4246V56.4842H59.7683Z" fill="white"/>
<path d="M25.2371 21.953C23.4091 21.953 21.9167 23.4453 21.9167 25.2733V42.5389C21.9167 44.3669 23.4091 45.8592 25.2371 45.8592H59.7683C61.5963 45.8592 63.0886 44.3669 63.0886 42.5389V25.2733C63.0886 23.4453 61.5963 21.953 59.7683 21.953H25.2371ZM25.2371 23.2811H59.7683C60.8835 23.2811 61.7605 24.1581 61.7605 25.2733V42.5389C61.7605 43.6541 60.8835 44.5311 59.7683 44.5311H25.2371C24.1219 44.5311 23.2449 43.6541 23.2449 42.5389V25.2733C23.2449 24.1581 24.1219 23.2811 25.2371 23.2811Z" fill="white"/>
<path d="M10.6276 61.7967C10.4062 61.7967 10.1985 61.819 9.98427 61.9109C9.77 62.0027 9.55237 62.2001 9.4551 62.4271C9.26054 62.881 9.40219 63.21 9.49919 63.501C9.69321 64.083 9.96352 64.6743 9.96352 65.117V65.7811H75.0416V65.117C75.0416 65.0617 75.0929 64.822 75.1895 64.5515C75.2861 64.2811 75.4141 63.9722 75.5112 63.6488C75.6082 63.3255 75.7197 62.9785 75.5656 62.5334C75.4886 62.3109 75.3058 62.082 75.0806 61.9576C74.8553 61.8331 74.6174 61.7967 74.3776 61.7967V63.0496C74.351 63.0186 74.318 62.992 74.3101 62.9692C74.2806 62.8838 74.3091 63.0375 74.2401 63.2675C74.1711 63.4975 74.0502 63.7947 73.9392 64.1054C73.9011 64.2121 73.8956 64.3426 73.8614 64.453H11.1178C10.9912 63.9342 10.8529 63.3598 10.7599 63.0807C10.6909 62.8737 10.7469 62.7876 10.6769 62.951C10.6667 62.9748 10.6458 62.9805 10.6276 63.0029V61.7967Z" fill="white"/>
<path d="M35.8621 63.1248V64.453H47.8152V63.1248H35.8621Z" fill="white"/>
<path d="M23.8948 36.5626V40.5418C23.8948 42.3698 25.3923 43.8673 27.2203 43.8673H31.2021V42.5444H27.2203C26.1051 42.5444 25.2281 41.657 25.2281 40.5418V36.5626H23.8948Z" fill="white"/>
<path d="M61.1073 31.2772V27.298C61.1073 25.47 59.6098 23.9725 57.7818 23.9725H53.8V25.2954H57.7818C58.897 25.2954 59.774 26.1828 59.774 27.298V31.2772H61.1073Z" fill="white"/>
</svg>
