<svg width="60" height="60" viewBox="0 0 60 60" fill="none" xmlns="http://www.w3.org/2000/svg">
<g clip-path="url(#clip0_5_169)">
<path d="M58.8704 21.7642C57.8537 20.5441 56.4302 19.8324 54.9051 19.8324C54.9051 17.5956 53.0749 15.7654 50.8381 15.7654H48.7062C48.2463 13.4204 46.2186 11.6984 43.7208 11.6984H32.028L27.2491 6.00453C27.0458 5.6995 26.7407 5.59786 26.4357 5.59786H8.13401C5.89717 5.59786 4.067 7.42803 4.067 9.66487V15.7654C1.83017 15.7654 0 17.5956 0 19.8324V50.3353C0 52.5721 1.83017 54.4023 4.067 54.4023H50.838C53.0748 54.4023 54.905 52.5721 54.905 50.3353V49.6236L59.8872 26.0346C60.1922 24.5095 59.8872 22.9844 58.8704 21.7642ZM6.10056 9.66487C6.10056 8.54639 7.01565 7.6313 8.13412 7.6313H25.9274L30.7062 13.3252C30.9096 13.6302 31.2146 13.7319 31.5197 13.7319H43.7208C45.0425 13.7319 46.161 14.5453 46.5677 15.7654H6.10056V9.66487ZM52.8715 50.3353C52.8715 51.4537 51.9564 52.3688 50.838 52.3688H4.067C2.94853 52.3688 2.03344 51.4537 2.03344 50.3353V19.8324C2.03344 18.714 2.94853 17.7989 4.067 17.7989H5.08372H47.7877H50.838C51.9564 17.7989 52.8715 18.714 52.8715 19.8324V20.8492V49.3184V50.3353ZM57.9554 25.5263L54.9051 39.6593V21.866C55.8202 21.866 56.7352 22.2727 57.3453 22.9845C57.9554 23.6963 58.1587 24.6112 57.9554 25.5263Z" fill="white"/>
<path d="M19.3184 21.866H7.11731C6.50725 21.866 6.10059 22.2727 6.10059 22.8827C6.10059 23.4928 6.50725 23.8994 7.11731 23.8994H19.3184C19.9285 23.8994 20.3352 23.4928 20.3352 22.8827C20.3352 22.2727 19.9285 21.866 19.3184 21.866Z" fill="white"/>
<path d="M19.3184 25.933H7.11731C6.50725 25.933 6.10059 26.3397 6.10059 26.9497C6.10059 27.5598 6.50725 27.9664 7.11731 27.9664H19.3184C19.9285 27.9664 20.3352 27.5598 20.3352 26.9497C20.3353 26.3397 19.9285 25.933 19.3184 25.933Z" fill="white"/>
</g>
<defs>
<clipPath id="clip0_5_169">
<rect width="60" height="60" fill="white"/>
</clipPath>
</defs>
</svg>
