<svg width="52" height="52" viewBox="0 0 52 52" fill="none" xmlns="http://www.w3.org/2000/svg">
<path fill-rule="evenodd" clip-rule="evenodd" d="M36.9167 28.6162C36.2781 29.25 35.243 29.25 34.6044 28.6162L27.625 21.6774V37.3587C27.625 38.2525 26.8986 38.9837 26 38.9837C25.1014 38.9837 24.375 38.2525 24.375 37.3587V21.7262L17.446 28.6162C16.809 29.25 15.7739 29.25 15.1336 28.6162C14.4966 27.9825 14.4966 26.9587 15.1336 26.3087L24.7877 16.705C25.129 16.3638 25.5791 16.2175 26.026 16.25C26.4712 16.2175 26.923 16.3638 27.2626 16.705L36.9167 26.3087C37.5537 26.9587 37.5537 27.9825 36.9167 28.6162ZM37.4839 14.6738C35.0984 9.8313 30.1324 6.5 24.375 6.5C16.6579 6.5 10.3512 12.4799 9.80361 20.0524C4.13073 21.6774 0 26.6338 0 32.5C0 39.4225 5.7525 45.0612 13 45.4675L40.625 45.5C46.2101 43.0788 52 36.3188 52 30.0625C52 21.8562 45.5796 15.145 37.4839 14.6738Z" fill="white"/>
</svg>
