<svg width="55" height="55" viewBox="0 0 55 55" fill="none" xmlns="http://www.w3.org/2000/svg">
<path fill-rule="evenodd" clip-rule="evenodd" d="M43.5417 29.7917V20.625H34.3751C31.8438 20.625 29.7917 18.573 29.7917 16.0417V6.875H11.4584V29.7917H6.87508V6.875C6.87508 4.34369 8.92711 2.29166 11.4584 2.29166H35.3243L48.1251 15.0924V29.7917H43.5417ZM34.3751 7.82424V16.0417H42.5925L34.3751 7.82424ZM2.29175 32.0833H52.7084V36.6667H2.29175V32.0833ZM11.4584 52.7083V38.9583H16.0417V52.7083H11.4584ZM29.7917 52.7083V38.9583H34.3751V52.7083H29.7917ZM20.6251 48.125V38.9583H25.2084V48.125H20.6251ZM38.9584 48.125V38.9583H43.5417V48.125H38.9584Z" fill="white"/>
</svg>
