<svg width="60" height="60" viewBox="0 0 60 60" fill="none" xmlns="http://www.w3.org/2000/svg">
<g clip-path="url(#clip0_5_187)">
<path d="M16.3334 31.3333H43.6667V36.4667H46.3334V28.6667H31.3334V23.3333H28.6667V28.6667H13.6667V36.4667H16.3334V31.3333Z" fill="white"/>
<path d="M23.3333 38.3333H6.66659C5.78253 38.3333 4.93468 38.6845 4.30956 39.3097C3.68444 39.9348 3.33325 40.7826 3.33325 41.6667V51.6667C3.33325 52.5507 3.68444 53.3986 4.30956 54.0237C4.93468 54.6488 5.78253 55 6.66659 55H23.3333C24.2173 55 25.0652 54.6488 25.6903 54.0237C26.3154 53.3986 26.6666 52.5507 26.6666 51.6667V41.6667C26.6666 40.7826 26.3154 39.9348 25.6903 39.3097C25.0652 38.6845 24.2173 38.3333 23.3333 38.3333ZM6.66659 51.6667V41.6667H23.3333V51.6667H6.66659Z" fill="white"/>
<path d="M53.3333 38.3333H36.6666C35.7825 38.3333 34.9347 38.6845 34.3096 39.3097C33.6844 39.9348 33.3333 40.7826 33.3333 41.6667V51.6667C33.3333 52.5507 33.6844 53.3986 34.3096 54.0237C34.9347 54.6488 35.7825 55 36.6666 55H53.3333C54.2173 55 55.0652 54.6488 55.6903 54.0237C56.3154 53.3986 56.6666 52.5507 56.6666 51.6667V41.6667C56.6666 40.7826 56.3154 39.9348 55.6903 39.3097C55.0652 38.6845 54.2173 38.3333 53.3333 38.3333ZM36.6666 51.6667V41.6667H53.3333V51.6667H36.6666Z" fill="white"/>
<path d="M21.6666 21.6667H38.3333C39.2173 21.6667 40.0652 21.3155 40.6903 20.6904C41.3154 20.0652 41.6666 19.2174 41.6666 18.3333V8.33333C41.6666 7.44928 41.3154 6.60143 40.6903 5.97631C40.0652 5.35119 39.2173 5 38.3333 5H21.6666C20.7825 5 19.9347 5.35119 19.3096 5.97631C18.6844 6.60143 18.3333 7.44928 18.3333 8.33333V18.3333C18.3333 19.2174 18.6844 20.0652 19.3096 20.6904C19.9347 21.3155 20.7825 21.6667 21.6666 21.6667ZM21.6666 8.33333H38.3333V18.3333H21.6666V8.33333Z" fill="white"/>
</g>
<defs>
<clipPath id="clip0_5_187">
<rect width="60" height="60" fill="white"/>
</clipPath>
</defs>
</svg>
