<svg width="60" height="60" viewBox="0 0 60 60" fill="none" xmlns="http://www.w3.org/2000/svg">
<g clip-path="url(#clip0_5_176)">
<path d="M30.3193 22.0214V27.1277C30.3193 27.6565 30.7479 28.0852 31.2768 28.0852C31.8057 28.0852 32.2342 27.6565 32.2342 27.1277V22.0214C32.2342 21.4926 31.8057 21.0639 31.2768 21.0639C30.7479 21.0639 30.3193 21.4926 30.3193 22.0214Z" fill="white"/>
<path d="M25.2129 22.0214V27.1277C25.2129 27.6565 25.6416 28.0852 26.1703 28.0852C26.6991 28.0852 27.1278 27.6565 27.1278 27.1277V22.0214C27.1278 21.4926 26.6991 21.0639 26.1703 21.0639C25.6416 21.0639 25.2129 21.4926 25.2129 22.0214Z" fill="white"/>
<path d="M35.4255 22.0214V27.1277C35.4255 27.6565 35.8541 28.0852 36.383 28.0852C36.9119 28.0852 37.3404 27.6565 37.3404 27.1277V22.0214C37.3404 21.4926 36.9119 21.0639 36.383 21.0639C35.8541 21.0639 35.4255 21.4926 35.4255 22.0214Z" fill="white"/>
<path d="M41.8617 47.8724C42.3905 47.8724 42.8192 47.4437 42.8192 46.9149C42.8192 46.3861 42.3905 45.9575 41.8617 45.9575C41.333 45.9575 40.9043 46.3861 40.9043 46.9149C40.9043 47.4437 41.333 47.8724 41.8617 47.8724Z" fill="white"/>
<path d="M46.4362 47.8724C46.965 47.8724 47.3936 47.4437 47.3936 46.9149C47.3936 46.3861 46.965 45.9575 46.4362 45.9575C45.9074 45.9575 45.4788 46.3861 45.4788 46.9149C45.4788 47.4437 45.9074 47.8724 46.4362 47.8724Z" fill="white"/>
<path d="M52.1809 44.0426C50.5972 44.0426 49.3086 45.3311 49.3086 46.9149C49.3086 48.4988 50.5972 49.7873 52.1809 49.7873C53.7647 49.7873 55.0533 48.4988 55.0533 46.9149C55.0533 45.3311 53.7648 44.0426 52.1809 44.0426ZM52.1809 47.8724C51.6529 47.8724 51.2235 47.4429 51.2235 46.9149C51.2235 46.3869 51.6529 45.9575 52.1809 45.9575C52.7089 45.9575 53.1384 46.3869 53.1384 46.9149C53.1384 47.4429 52.7089 47.8724 52.1809 47.8724Z" fill="white"/>
<path d="M53.9362 30.0001H5.41748C5.42195 29.9467 5.42565 29.8931 5.42565 29.8384C5.42565 29.4859 5.32812 29.1562 5.16114 28.8722L47.6592 4.33595C48.1171 4.07157 48.274 3.48599 48.0096 3.02808C46.9313 1.1603 44.9135 0.0001297 42.7435 0.0001297C41.6857 0.0001297 40.6424 0.279704 39.7263 0.808596L0.478855 23.4681C0.0209409 23.7325 -0.135952 24.3181 0.12843 24.776L2.23111 28.418C1.84213 28.7687 1.59587 29.2747 1.59587 29.8384C1.59587 30.5454 1.98192 31.1625 2.55332 31.4942V53.9361C2.55332 54.4648 2.982 54.8935 3.51076 54.8935H4.46821V59.0424C4.46821 59.5712 4.89689 59.9999 5.42565 59.9999H57.1277C57.6566 59.9999 58.0851 59.5712 58.0851 59.0424V54.8935H59.0426C59.5715 54.8935 60 54.4648 60 53.9361V36.0638C60 32.7202 57.2798 30.0001 53.9362 30.0001ZM3.86119 27.4116L2.26545 24.6477L40.6839 2.46689C41.3092 2.10587 42.0215 1.91502 42.7437 1.91502C43.9029 1.91502 44.9981 2.39655 45.774 3.21331L3.86119 27.4116ZM58.0851 52.9787H14.3618C13.833 52.9787 13.4044 53.4074 13.4044 53.9362C13.4044 54.465 13.833 54.8936 14.3618 54.8936H56.1702V58.0851H6.3831V54.8936H10.532C11.0608 54.8936 11.4895 54.465 11.4895 53.9362C11.4895 53.4074 11.0608 52.9787 10.532 52.9787H4.46821V31.915H53.9362C56.224 31.915 58.0851 33.7762 58.0851 36.0639V52.9787Z" fill="white"/>
</g>
<defs>
<clipPath id="clip0_5_176">
<rect width="60" height="60" fill="white"/>
</clipPath>
</defs>
</svg>
