<svg width="34" height="34" viewBox="0 0 34 34" fill="none" xmlns="http://www.w3.org/2000/svg">
<g clip-path="url(#clip0_5_305)">
<path d="M16.9672 0C12.3574 0 11.7816 0.021209 9.97248 0.101803C8.16547 0.186639 6.93535 0.47084 5.85369 0.890779C4.72106 1.31628 3.69503 1.98402 2.84731 2.84731C1.98327 3.69441 1.31542 4.72062 0.890779 5.85369C0.47084 6.93535 0.185579 8.16547 0.101803 9.97248C0.0169672 11.7827 0 12.3585 0 16.9672C0 21.577 0.021209 22.1528 0.101803 23.9619C0.186639 25.7679 0.47084 26.9991 0.890779 28.0807C1.31665 29.2132 1.98433 30.2391 2.84731 31.0871C3.69481 31.9507 4.7209 32.6185 5.85369 33.0436C6.93641 33.4625 8.16653 33.7488 9.97248 33.8326C11.7827 33.9175 12.3585 33.9344 16.9672 33.9344C21.577 33.9344 22.1528 33.9132 23.9619 33.8326C25.7679 33.7478 26.9991 33.4615 28.0807 33.0436C29.2129 32.6173 30.2388 31.9496 31.0871 31.0871C31.951 30.2399 32.6188 29.2137 33.0436 28.0807C33.4625 26.9991 33.7488 25.7679 33.8326 23.9619C33.9175 22.1518 33.9344 21.5759 33.9344 16.9672C33.9344 12.3574 33.9132 11.7816 33.8326 9.97248C33.7478 8.16653 33.4615 6.93429 33.0436 5.85369C32.6176 4.72134 31.9499 3.69542 31.0871 2.84731C30.2402 1.98297 29.214 1.31508 28.0807 0.890779C26.9991 0.47084 25.7679 0.185579 23.9619 0.101803C22.1518 0.0169672 21.5759 0 16.9672 0ZM16.9672 3.0541C21.4953 3.0541 22.0362 3.07637 23.8251 3.15484C25.4794 3.23225 26.3766 3.50691 26.9736 3.74127C27.769 4.0488 28.331 4.41572 28.928 5.00851C29.5198 5.60236 29.8877 6.16652 30.1942 6.9608C30.4265 7.55783 30.7032 8.45603 30.7785 10.1103C30.8591 11.8993 30.8771 12.437 30.8771 16.9672C30.8771 21.4975 30.8559 22.0362 30.7732 23.8251C30.6863 25.4794 30.4105 26.3766 30.1772 26.9736C29.8612 27.769 29.5007 28.331 28.9068 28.928C28.3583 29.4895 27.6918 29.922 26.9556 30.1942C26.3617 30.4265 25.4498 30.7032 23.7955 30.7785C21.9937 30.8591 21.4635 30.8771 16.9248 30.8771C12.385 30.8771 11.8548 30.8559 10.0541 30.7732C8.39877 30.6863 7.48678 30.4105 6.89293 30.1772C6.08805 29.8612 5.53555 29.5007 4.94276 28.9068C4.37519 28.3621 3.93989 27.6946 3.67022 26.9556C3.43692 26.3617 3.16332 25.4498 3.07637 23.7955C3.01274 22.0139 2.99047 21.4635 2.99047 16.946C2.99047 12.4274 3.01274 11.876 3.07637 10.0732C3.16332 8.41892 3.43692 7.50799 3.67022 6.91414C3.96715 6.1082 4.34785 5.55676 4.94276 4.96185C5.53555 4.36906 6.08805 3.98729 6.89293 3.69037C7.48678 3.45707 8.37862 3.18135 10.0329 3.09652C11.8357 3.03289 12.3659 3.01168 16.9036 3.01168L16.9672 3.0541ZM16.9672 8.25455C15.823 8.25441 14.69 8.47967 13.6329 8.91748C12.5757 9.35528 11.6152 9.99704 10.8061 10.8061C9.99704 11.6152 9.35528 12.5757 8.91748 13.6329C8.47967 14.69 8.25441 15.823 8.25455 16.9672C8.25455 21.7817 12.157 25.6799 16.9672 25.6799C21.7817 25.6799 25.6799 21.7774 25.6799 16.9672C25.6799 12.1528 21.7774 8.25455 16.9672 8.25455ZM16.9672 22.6237C16.2244 22.6238 15.4889 22.4776 14.8026 22.1933C14.1163 21.9091 13.4928 21.4925 12.9676 20.9672C12.4424 20.4419 12.0258 19.8183 11.7417 19.1319C11.4576 18.4456 11.3115 17.71 11.3118 16.9672C11.3117 16.2245 11.4579 15.489 11.742 14.8028C12.0262 14.1166 12.4428 13.4931 12.9679 12.9679C13.4931 12.4428 14.1166 12.0262 14.8028 11.742C15.489 11.4579 16.2245 11.3117 16.9672 11.3118C17.7099 11.3117 18.4454 11.4579 19.1316 11.742C19.8178 12.0262 20.4413 12.4428 20.9665 12.9679C21.4917 13.4931 21.9082 14.1166 22.1924 14.8028C22.4765 15.489 22.6227 16.2245 22.6226 16.9672C22.6227 17.7099 22.4765 18.4454 22.1924 19.1316C21.9082 19.8178 21.4917 20.4413 20.9665 20.9665C20.4413 21.4917 19.8178 21.9082 19.1316 22.1924C18.4454 22.4765 17.7099 22.6238 16.9672 22.6237ZM28.0606 7.91096C28.0606 9.03504 27.1475 9.94703 26.0245 9.94703C24.9004 9.94703 23.9885 9.03398 23.9885 7.91096C24.0055 7.38234 24.2275 6.88107 24.6075 6.51317C24.9875 6.14526 25.4956 5.93956 26.0245 5.93956C26.5534 5.93956 27.0616 6.14526 27.4416 6.51317C27.8215 6.88107 28.0435 7.38234 28.0606 7.91096Z" fill="white"/>
</g>
<defs>
<clipPath id="clip0_5_305">
<rect width="33.9344" height="33.9344" fill="white"/>
</clipPath>
</defs>
</svg>
