<svg width="34" height="34" viewBox="0 0 34 34" fill="none" xmlns="http://www.w3.org/2000/svg">
<g clip-path="url(#clip0_5_298)">
<path d="M28.3444 33.9344H5.72141C5.35025 33.9344 4.98351 33.8969 4.61898 33.824C4.25445 33.7511 3.90097 33.645 3.55853 33.5014C3.2161 33.36 2.88912 33.1855 2.57983 32.98C2.27274 32.7723 1.98553 32.5382 1.72484 32.2753C1.46193 32.0146 1.22775 31.7274 1.02008 31.4203C0.814617 31.111 0.640085 30.784 0.498691 30.4416C0.355089 30.0991 0.249044 29.7456 0.176137 29.3811C0.103231 29.0166 0.0656738 28.6498 0.0656738 28.2787V5.65574C0.0656738 5.28458 0.103231 4.91784 0.176137 4.55331C0.249044 4.18878 0.355089 3.8353 0.498691 3.49286C0.640085 3.15042 0.814617 2.82345 1.02008 2.51415C1.22775 2.20706 1.46193 1.91986 1.72484 1.65916C1.98553 1.39626 2.27274 1.16208 2.57983 0.954406C2.88912 0.748943 3.2161 0.574411 3.55853 0.433017C3.90097 0.289415 4.25445 0.18337 4.61898 0.110463C4.98351 0.0375576 5.35025 0 5.72141 0H28.3444C28.7155 0 29.0823 0.0375576 29.4468 0.110463C29.8113 0.18337 30.1648 0.289415 30.5072 0.433017C30.8497 0.574411 31.1766 0.748943 31.4859 0.954406C31.793 1.16208 32.0802 1.39626 32.3409 1.65916C32.6038 1.91986 32.838 2.20706 33.0457 2.51415C33.2512 2.82345 33.4257 3.15042 33.5671 3.49286C33.7107 3.8353 33.8167 4.18878 33.8896 4.55331C33.9625 4.91784 34.0001 5.28458 34.0001 5.65574V28.2787C34.0001 28.6498 33.9625 29.0166 33.8896 29.3811C33.8167 29.7456 33.7107 30.0991 33.5671 30.4416C33.4257 30.784 33.2512 31.111 33.0457 31.4203C32.838 31.7274 32.6038 32.0146 32.3409 32.2753C32.0802 32.5382 31.793 32.7723 31.4859 32.98C31.1766 33.1855 30.8497 33.36 30.5072 33.5014C30.1648 33.645 29.8113 33.7511 29.4468 33.824C29.0823 33.8969 28.7155 33.9344 28.3444 33.9344ZM5.72141 3.77123C5.47176 3.77123 5.23095 3.81762 4.99898 3.91483C4.76921 4.00983 4.56596 4.1468 4.38922 4.32355C4.21248 4.50029 4.0755 4.70354 3.9805 4.9333C3.8833 5.16528 3.8369 5.40609 3.8369 5.65574V28.2787C3.8369 28.5283 3.8833 28.7691 3.9805 29.0011C4.0755 29.2309 4.21248 29.4341 4.38922 29.6109C4.56596 29.7876 4.76921 29.9246 4.99898 30.0196C5.23095 30.1168 5.47176 30.1632 5.72141 30.1632H28.3444C28.594 30.1632 28.8348 30.1168 29.0668 30.0196C29.2966 29.9246 29.4998 29.7876 29.6765 29.6109C29.8533 29.4341 29.9903 29.2309 30.0853 29.0011C30.1825 28.7691 30.2289 28.5283 30.2289 28.2787V5.65574C30.2289 5.40609 30.1825 5.16528 30.0853 4.9333C29.9903 4.70354 29.8533 4.50029 29.6765 4.32355C29.4998 4.1468 29.2966 4.00983 29.0668 3.91483C28.8348 3.81762 28.594 3.77123 28.3444 3.77123H5.72141Z" fill="white"/>
<path d="M9.49268 26.394C9.24303 26.394 9.00222 26.3454 8.77024 26.2504C8.54048 26.1532 8.33502 26.0184 8.15828 25.8417C7.98153 25.6649 7.84677 25.4595 7.74956 25.2297C7.65456 24.9977 7.60596 24.7569 7.60596 24.5073V15.0825C7.60596 14.8329 7.65456 14.5921 7.74956 14.3601C7.84677 14.1303 7.98153 13.9249 8.15828 13.7481C8.33502 13.5714 8.54048 13.4366 8.77024 13.3394C9.00222 13.2444 9.24303 13.1958 9.49268 13.1958C9.74232 13.1958 9.98313 13.2444 10.2129 13.3394C10.4449 13.4366 10.6481 13.5714 10.8249 13.7481C11.0016 13.9249 11.1386 14.1303 11.2336 14.3601C11.3286 14.5921 11.3772 14.8329 11.3772 15.0825V24.5073C11.3772 24.7569 11.3286 24.9977 11.2336 25.2297C11.1386 25.4595 11.0016 25.6649 10.8249 25.8417C10.6481 26.0184 10.4449 26.1532 10.2129 26.2504C9.98313 26.3454 9.74232 26.394 9.49268 26.394Z" fill="white"/>
<path d="M9.49248 11.3314C9.24062 11.3314 8.99981 11.2828 8.76784 11.1878C8.53807 11.0928 8.33261 10.958 8.15587 10.7813C7.97692 10.6046 7.83994 10.4013 7.74274 10.1693C7.64774 9.93957 7.59913 9.69876 7.59692 9.44911C7.59692 9.19725 7.64332 8.95644 7.73832 8.72447C7.83332 8.4925 7.96808 8.28924 8.14482 8.11029C8.31936 7.93355 8.52261 7.79437 8.75458 7.69716C8.98435 7.60216 9.22516 7.55134 9.47701 7.55134C9.72666 7.54914 9.96747 7.59553 10.1994 7.69053C10.4314 7.78332 10.6369 7.92029 10.8136 8.09483C10.9926 8.27157 11.1296 8.47482 11.229 8.70459C11.3262 8.93656 11.3748 9.17516 11.377 9.42702V9.44469C11.377 9.69434 11.3284 9.93515 11.2334 10.1671C11.1384 10.3969 11.0014 10.6024 10.8247 10.7791C10.6479 10.9558 10.4447 11.0906 10.2127 11.1878C9.98294 11.2828 9.74213 11.3314 9.49248 11.3314Z" fill="white"/>
<path d="M17.0327 26.394C16.7831 26.394 16.5422 26.3454 16.3103 26.2504C16.0805 26.1532 15.8773 26.0184 15.7005 25.8417C15.5238 25.6649 15.3868 25.4595 15.2918 25.2297C15.1946 24.9977 15.1482 24.7569 15.1482 24.5073V15.0825C15.1482 14.8329 15.1946 14.5921 15.2918 14.3601C15.3868 14.1303 15.5238 13.9249 15.7005 13.7481C15.8773 13.5714 16.0805 13.4366 16.3103 13.3394C16.5422 13.2444 16.7831 13.1958 17.0327 13.1958C17.2824 13.1958 17.5232 13.2444 17.7551 13.3394C17.9849 13.4366 18.1882 13.5714 18.3649 13.7481C18.5416 13.9249 18.6786 14.1303 18.7736 14.3601C18.8708 14.5921 18.9172 14.8329 18.9172 15.0825V24.5073C18.9172 24.7569 18.8708 24.9977 18.7736 25.2297C18.6786 25.4595 18.5416 25.6649 18.3649 25.8417C18.1882 26.0184 17.9849 26.1532 17.7551 26.2504C17.5232 26.3454 17.2824 26.394 17.0327 26.394Z" fill="white"/>
<path d="M24.5729 26.394C24.3233 26.394 24.0825 26.3454 23.8527 26.2504C23.6208 26.1532 23.4175 26.0184 23.2408 25.8417C23.064 25.6649 22.927 25.4595 22.832 25.2297C22.737 24.9977 22.6884 24.7569 22.6884 24.5073V18.8515C22.6884 18.6019 22.6398 18.3611 22.5448 18.1313C22.4498 17.8993 22.3129 17.6961 22.1361 17.5193C21.9594 17.3426 21.7561 17.2056 21.5242 17.1106C21.2944 17.0156 21.0536 16.967 20.8039 16.967C20.5543 16.967 20.3135 17.0156 20.0815 17.1106C19.8517 17.2056 19.6463 17.3426 19.4695 17.5193C19.2928 17.6961 19.158 17.8993 19.0608 18.1313C18.9658 18.3611 18.9172 18.6019 18.9172 18.8515C18.9172 19.1012 18.8708 19.342 18.7736 19.574C18.6786 19.8037 18.5416 20.0092 18.3649 20.1859C18.1882 20.3627 17.9849 20.4974 17.7551 20.5947C17.5232 20.6897 17.2824 20.7383 17.0327 20.7383C16.7831 20.7383 16.5422 20.6897 16.3103 20.5947C16.0805 20.4974 15.8773 20.3627 15.7005 20.1859C15.5238 20.0092 15.3868 19.8037 15.2918 19.574C15.1946 19.342 15.1482 19.1012 15.1482 18.8515C15.1482 18.4804 15.1835 18.1136 15.2564 17.7491C15.3294 17.3846 15.4354 17.0311 15.579 16.6887C15.7204 16.344 15.8949 16.0193 16.1004 15.71C16.3059 15.4007 16.5422 15.1157 16.8029 14.8528C17.0658 14.5899 17.353 14.3557 17.6601 14.1502C17.9694 13.9425 18.2964 13.7702 18.6388 13.6266C18.9813 13.4852 19.3348 13.377 19.6993 13.3063C20.0638 13.2334 20.4328 13.1958 20.8039 13.1958C21.1751 13.1958 21.5418 13.2334 21.9064 13.3063C22.2709 13.377 22.6244 13.4852 22.9668 13.6266C23.3115 13.7702 23.6362 13.9425 23.9455 14.1502C24.2548 14.3557 24.5398 14.5899 24.8027 14.8528C25.0656 15.1157 25.2998 15.4007 25.5053 15.71C25.7129 16.0193 25.8853 16.344 26.0289 16.6887C26.1703 17.0311 26.2785 17.3846 26.3492 17.7491C26.4221 18.1136 26.4597 18.4804 26.4597 18.8515V24.5073C26.4597 24.7569 26.4111 24.9977 26.3161 25.2297C26.2189 25.4595 26.0841 25.6649 25.9073 25.8417C25.7306 26.0184 25.5251 26.1532 25.2954 26.2504C25.0634 26.3454 24.8226 26.394 24.5729 26.394Z" fill="white"/>
</g>
<defs>
<clipPath id="clip0_5_298">
<rect width="33.9344" height="33.9344" fill="white" transform="translate(0.0656738)"/>
</clipPath>
</defs>
</svg>
