<svg width="99" height="99" viewBox="0 0 99 99" fill="none" xmlns="http://www.w3.org/2000/svg">
<circle cx="49.5" cy="49.5" r="49.5" fill="black"/>
<path d="M78.4701 48.4848C72.087 37.3348 61.27 30 48.9999 30C36.7297 30 25.913 37.3348 19.5299 48.4848C19.3597 48.7833 19.0192 49.5155 19.0009 50.244C18.9808 50.9743 19.2864 51.6993 19.442 51.9739C25.8141 63.21 36.6729 70.6125 48.9999 70.6125C61.3268 70.6125 72.1859 63.21 78.558 51.9739C78.7136 51.6993 79.0192 50.9745 78.9991 50.244C78.9808 49.5155 78.6404 48.7833 78.4701 48.4848ZM48.9999 64.0518C41.4946 64.0518 35.41 57.9671 35.41 50.4619C35.41 42.9566 41.4946 36.8718 48.9999 36.8718C56.5052 36.8718 62.59 42.9566 62.59 50.4619C62.59 57.9671 56.5052 64.0518 48.9999 64.0518Z" fill="#6DC8E3"/>
<path d="M48.9999 41.4447C47.519 41.4447 46.1406 41.8363 44.9086 42.4696L48.2293 49.9951L40.5814 47.306C40.2115 48.2908 39.9827 49.3471 39.9827 50.462C39.9827 55.4394 44.0227 59.4794 49 59.4794C53.9774 59.4794 58.0172 55.4394 58.0172 50.462C58.0172 45.4847 53.9774 41.4447 48.9999 41.4447Z" fill="#6DC8E3"/>
</svg>
