<svg width="34" height="32" viewBox="0 0 34 32" fill="none" xmlns="http://www.w3.org/2000/svg">
<path d="M24.7382 18.8587C24.313 18.6591 22.2419 17.7219 21.8548 17.5882C21.4678 17.4603 21.1867 17.3935 20.9047 17.7878C20.6289 18.1723 19.8166 19.0525 19.5685 19.3091C19.3203 19.5658 19.0764 19.5855 18.6576 19.4114C18.2323 19.2118 16.8739 18.8017 15.2609 17.4603C14.0011 16.4209 13.1623 15.1405 12.9131 14.7461C12.665 14.3567 12.8855 14.1364 13.0955 13.9417C13.2885 13.7627 13.5207 13.4913 13.736 13.2553C13.9407 13.0193 14.0064 12.8609 14.156 12.6053C14.2938 12.3289 14.2228 12.1136 14.1178 11.9188C14.0128 11.7241 13.1676 9.79371 12.8145 9.02469C12.4773 8.26157 12.1241 8.35893 11.8643 8.35893C11.6215 8.33828 11.3394 8.33828 11.0584 8.33828C10.7774 8.33828 10.3182 8.43563 9.93112 8.80933C9.54406 9.20367 8.45073 10.1458 8.45073 12.0516C8.45073 13.9624 9.96399 15.8112 10.174 16.0875C10.3892 16.3432 13.1506 20.2768 17.3871 21.9673C18.3978 22.3616 19.1825 22.5976 19.7954 22.7923C20.806 23.0893 21.7286 23.048 22.4572 22.9507C23.2631 22.8277 24.9535 22.0027 25.3077 21.0812C25.6671 20.1539 25.6671 19.3858 25.5622 19.2118C25.4572 19.0328 25.1815 18.9354 24.7562 18.7614L24.7382 18.8587ZM17.0552 28.5187H17.033C14.525 28.5187 12.0457 27.8883 9.88022 26.7102L9.37226 26.429L4.07001 27.7094L5.49526 22.9251L5.15273 22.4334C3.75506 20.3692 3.00956 17.9874 3.00956 15.5397C3.00956 8.40023 9.31182 2.57652 17.0658 2.57652C20.8219 2.57652 24.3458 3.93361 26.997 6.39212C29.6481 8.82998 31.1115 12.0978 31.1115 15.5604C31.1009 22.695 24.8039 28.5187 17.0605 28.5187H17.0552ZM29.0129 4.52267C25.787 1.63343 21.5452 0 17.033 0C7.72644 0 0.148463 6.99691 0.143161 15.5958C0.143161 18.3415 0.916229 21.0202 2.39662 23.3912L0 31.4689L8.95869 29.3025C11.4274 30.5366 14.2058 31.1975 17.034 31.2024H17.0393C26.3511 31.2024 33.9291 24.2055 33.9344 15.6007C33.9344 11.437 32.1836 7.51812 28.9917 4.57282L29.0129 4.52267Z" fill="#B2B2B2"/>
</svg>
